<?xml version="1.0" standalone="no"?>
<!DOCTYPE svg PUBLIC "-//W3C//DTD SVG 20010904//EN"
 "http://www.w3.org/TR/2001/REC-SVG-20010904/DTD/svg10.dtd">
<svg version="1.0" xmlns="http://www.w3.org/2000/svg"
 width="512.000000pt" height="512.000000pt" viewBox="0 0 512.000000 512.000000"
 preserveAspectRatio="xMidYMid meet">
<metadata>
Created by potrace 1.11, written by Peter Selinger 2001-2013
</metadata>
<g transform="translate(0.000000,512.000000) scale(0.100000,-0.100000)"
fill="#000000" stroke="none">
<path d="M2036 4429 c-125 -71 -233 -129 -238 -129 -6 0 -111 57 -235 126
-123 69 -226 124 -228 122 -2 -2 53 -105 122 -228 69 -124 126 -229 126 -235
0 -5 -57 -111 -126 -235 -69 -123 -124 -226 -122 -228 2 -2 105 53 228 122
124 69 229 126 235 126 8 0 355 -191 440 -243 l34 -20 -17 34 c-10 19 -69 125
-131 236 -63 112 -114 205 -114 208 0 3 51 96 114 208 116 207 149 268 144
266 -2 0 -106 -59 -232 -130z"/>
<path d="M3631 4520 c140 -242 240 -432 235 -447 -6 -15 -172 -314 -235 -423
l-26 -45 45 26 c109 63 408 229 423 235 15 5 205 -95 447 -235 l45 -26 -26 45
c-140 242 -240 432 -235 447 6 15 172 314 235 423 l26 45 -45 -26 c-109 -63
-408 -229 -423 -235 -15 -5 -205 95 -447 235 l-45 26 26 -45z"/>
<path d="M2916 3595 c-32 -11 -272 -246 -1179 -1152 -786 -785 -1145 -1150
-1158 -1178 -23 -49 -24 -103 -4 -152 17 -39 439 -473 507 -519 48 -34 115
-42 171 -20 34 13 258 232 1189 1163 1047 1049 1148 1152 1158 1192 13 51 6
103 -20 146 -10 17 -128 139 -262 271 -200 199 -250 244 -283 253 -51 14 -71
13 -119 -4z m249 -435 l200 -200 -225 -225 c-124 -124 -229 -225 -235 -225
-13 0 -395 382 -395 395 0 10 440 455 450 455 3 0 95 -90 205 -200z"/>
<path d="M3627 2238 c52 -85 243 -432 243 -440 0 -6 -57 -111 -126 -235 -69
-123 -124 -226 -122 -228 2 -2 105 53 228 122 124 69 230 126 235 126 6 0 111
-57 235 -126 123 -69 226 -124 228 -122 2 2 -53 105 -122 228 -69 124 -126
229 -126 235 0 8 191 355 243 440 l20 34 -34 -17 c-19 -10 -125 -69 -236 -131
-112 -63 -205 -114 -208 -114 -3 0 -96 51 -208 114 -111 62 -217 121 -236 131
l-34 17 20 -34z"/>
</g>
</svg>
